REM DIRINDEX 1\2,1\3,1\4,1\5
REM DIRNAME cjc005,folder01,folder02,folder03,folder04
TITLE ""
FILE "P1Q_t_1160-1169.mp3" MP3
  TRACK 01 AUDIO
    TITLE "3:cjc005_4386"
    INDEX 01 00:00:00
  TRACK 02 AUDIO
    TITLE "0:"
    INDEX 01 00:01:05
  TRACK 03 AUDIO
    TITLE "4:cjc005_4387"
    INDEX 01 00:01:38
  TRACK 04 AUDIO
    TITLE "0:"
    INDEX 01 00:02:69
  TRACK 05 AUDIO
    TITLE "5:cjc005_4388"
    INDEX 01 00:03:23
  TRACK 06 AUDIO
    TITLE "0:"
    INDEX 01 00:07:05
  TRACK 07 AUDIO
    TITLE "3:cjc005_4389"
    INDEX 01 00:07:54
  TRACK 08 AUDIO
    TITLE "0:"
    INDEX 01 00:09:08
  TRACK 09 AUDIO
    TITLE "4:cjc005_4390"
    INDEX 01 00:09:34
  TRACK 10 AUDIO
    TITLE "0:"
    INDEX 01 00:10:61
  TRACK 11 AUDIO
    TITLE "5:cjc005_4391"
    INDEX 01 00:11:05
  TRACK 12 AUDIO
    TITLE "0:"
    INDEX 01 00:14:66
  TRACK 13 AUDIO
    TITLE "3:cjc005_4392"
    INDEX 01 00:15:42
  TRACK 14 AUDIO
    TITLE "0:"
    INDEX 01 00:16:48
  TRACK 15 AUDIO
    TITLE "4:cjc005_4393"
    INDEX 01 00:17:00
  TRACK 16 AUDIO
    TITLE "0:"
    INDEX 01 00:18:21
  TRACK 17 AUDIO
    TITLE "5:cjc005_4394"
    INDEX 01 00:18:46
  TRACK 18 AUDIO
    TITLE "0:"
    INDEX 01 00:21:35
  TRACK 19 AUDIO
    TITLE "3:cjc005_4395"
    INDEX 01 00:22:09
  TRACK 20 AUDIO
    TITLE "0:"
    INDEX 01 00:23:28
  TRACK 21 AUDIO
    TITLE "4:cjc005_4396"
    INDEX 01 00:23:57
  TRACK 22 AUDIO
    TITLE "0:"
    INDEX 01 00:24:69
  TRACK 23 AUDIO
    TITLE "5:cjc005_4397"
    INDEX 01 00:25:27
  TRACK 24 AUDIO
    TITLE "0:"
    INDEX 01 00:29:60
  TRACK 25 AUDIO
    TITLE "3:cjc005_4398"
    INDEX 01 00:30:40
  TRACK 26 AUDIO
    TITLE "0:"
    INDEX 01 00:31:43
  TRACK 27 AUDIO
    TITLE "4:cjc005_4399"
    INDEX 01 00:31:73
  TRACK 28 AUDIO
    TITLE "0:"
    INDEX 01 00:33:17
  TRACK 29 AUDIO
    TITLE "5:cjc005_4400"
    INDEX 01 00:33:44
  TRACK 30 AUDIO
    TITLE "0:"
    INDEX 01 00:37:36
  TRACK 31 AUDIO
    TITLE "3:cjc005_4401"
    INDEX 01 00:38:14
  TRACK 32 AUDIO
    TITLE "0:"
    INDEX 01 00:39:29
  TRACK 33 AUDIO
    TITLE "4:cjc005_4402"
    INDEX 01 00:39:54
  TRACK 34 AUDIO
    TITLE "0:"
    INDEX 01 00:40:73
  TRACK 35 AUDIO
    TITLE "5:cjc005_4403"
    INDEX 01 00:41:16
  TRACK 36 AUDIO
    TITLE "0:"
    INDEX 01 00:46:49
  TRACK 37 AUDIO
    TITLE "3:cjc005_4404"
    INDEX 01 00:47:25
  TRACK 38 AUDIO
    TITLE "0:"
    INDEX 01 00:48:55
  TRACK 39 AUDIO
    TITLE "4:cjc005_4405"
    INDEX 01 00:49:04
  TRACK 40 AUDIO
    TITLE "0:"
    INDEX 01 00:50:29
  TRACK 41 AUDIO
    TITLE "5:cjc005_4406"
    INDEX 01 00:50:56
  TRACK 42 AUDIO
    TITLE "0:"
    INDEX 01 00:55:22
  TRACK 43 AUDIO
    TITLE "3:cjc005_4407"
    INDEX 01 00:55:67
  TRACK 44 AUDIO
    TITLE "0:"
    INDEX 01 00:57:11
  TRACK 45 AUDIO
    TITLE "4:cjc005_4408"
    INDEX 01 00:57:37
  TRACK 46 AUDIO
    TITLE "0:"
    INDEX 01 00:58:54
  TRACK 47 AUDIO
    TITLE "5:cjc005_4409"
    INDEX 01 00:59:02
  TRACK 48 AUDIO
    TITLE "0:"
    INDEX 01 01:03:55
  TRACK 49 AUDIO
    TITLE "3:cjc005_4410"
    INDEX 01 01:04:33
  TRACK 50 AUDIO
    TITLE "0:"
    INDEX 01 01:05:48
  TRACK 51 AUDIO
    TITLE "4:cjc005_4411"
    INDEX 01 01:06:02
  TRACK 52 AUDIO
    TITLE "0:"
    INDEX 01 01:07:33
  TRACK 53 AUDIO
    TITLE "5:cjc005_4412"
    INDEX 01 01:07:59
  TRACK 54 AUDIO
    TITLE "0:"
    INDEX 01 01:13:24
  TRACK 55 AUDIO
    TITLE "3:cjc005_4413"
    INDEX 01 01:13:71
  TRACK 56 AUDIO
    TITLE "0:"
    INDEX 01 01:15:03
  TRACK 57 AUDIO
    TITLE "4:cjc005_4414"
    INDEX 01 01:15:27
  TRACK 58 AUDIO
    TITLE "0:"
    INDEX 01 01:16:26
  TRACK 59 AUDIO
    TITLE "5:cjc005_4415"
    INDEX 01 01:16:46
  TRACK 60 AUDIO
    TITLE "0:"
    INDEX 01 01:20:02
